# xmcd
# 
# Track frame offsets:
#     150
#     12957
#     21278
#     27313
#     38584
#     50071
#     61988
#     73232
#     85224
#     95474
#     103114
#     112301
#     124767
#     132448
#     141389
#     150876
# 
# Disc length: 2158
# 
# Revision: 6
# Processed by: cddbd v1.5.2PL0 Copyright (c) Steve Scherf et al.
# Submitted via: BonkEnc v1.0
# 
DISCID=e1086c10
DTITLE=Johnny Cash - The Great Johnny Cash [CD 2/3)
DYEAR=1999
DGENRE=Country
TTITLE0=Folsom Prison Blues
TTITLE1=The Wreck Of The Old 97
TTITLE2=You Tell Me
TTITLE3=Oh! Lonesome Me  (Don Gibson)
TTITLE4=Big River
TTITLE5=Doin' My Time  (Jimmie Skinner)
TTITLE6=Don't Make Me Go
TTITLE7=Home Of The Blues  (Cash/Douglas/Alpine)
TTITLE8=Straight A's In Love
TTITLE9=Come In Stranger
TTITLE10=Blue Train  (Bill Smith)
TTITLE11=Next In Line
TTITLE12=Hey Good Lookin'  (Hank Williams)
TTITLE13=Life Goes On  (Jack Clement/Johnny Cash)
TTITLE14=New Mexico
TTITLE15=Wide Open Road #2
EXTD=(c)1999 RedX Entertainment Pty Australia\nupc 9325425000604
EXTT0=
EXTT1=
EXTT2=
EXTT3=
EXTT4=
EXTT5=
EXTT6=
EXTT7=
EXTT8=
EXTT9=
EXTT10=
EXTT11=
EXTT12=
EXTT13=
EXTT14=
EXTT15=
PLAYORDER=
